<svg width="207" height="38" viewBox="0 0 207 38" fill="none" xmlns="http://www.w3.org/2000/svg">
<path d="M14.744 3H9.62871L0 19.6697L9.62871 36.3996H14.8041L5.11525 19.6697L14.744 3Z" fill="#171717"/>
<path d="M28.8861 3H18.4751L15.8874 7.45328H26.2984L33.3996 19.6697L26.2984 31.9463H15.8874L18.4751 36.3996H28.8861L38.5148 19.6697L28.8861 3Z" fill="#171717"/>
<rect x="18.5955" y="11.1243" width="1.32395" height="16.6095" fill="#171717"/>
<rect x="27.5621" y="18.9475" width="1.32395" height="16.6095" transform="rotate(90 27.5621 18.9475)" fill="#171717"/>
<path d="M13.2164 14.1163C13.499 13.891 13.7814 13.6659 14.0635 13.4411C16.7266 16.7819 21.6061 16.048 24.5705 13.685C24.8704 14.0613 25.133 14.3907 25.3958 14.7203C22.4784 17.0458 16.4797 18.2101 13.2164 14.1163Z" fill="#171717"/>
<path d="M13.2164 25.1518C13.499 25.3771 13.7814 25.6022 14.0635 25.827C16.7266 22.4861 21.6061 23.22 24.5705 25.583C24.8704 25.2068 25.133 24.8774 25.3958 24.5477C22.4784 22.2223 16.4797 21.058 13.2164 25.1518Z" fill="#171717"/>
<path d="M18.0406 28.3401C18.2659 28.0575 18.491 27.7751 18.7158 27.493C15.0449 23.2203 13.7209 17.744 18.6556 11.9668C18.2794 11.6669 17.95 11.4043 17.6204 11.1415C12.9988 16.7811 12.8182 23.5212 18.0406 28.3401Z" fill="#171717"/>
<path d="M20.4743 28.3401C20.249 28.0575 20.0239 27.7751 19.7991 27.493C23.47 23.2203 24.794 17.744 19.8593 11.9668C20.2355 11.6669 20.5649 11.4043 20.8945 11.1415C25.5161 16.7811 25.6967 23.5212 20.4743 28.3401Z" fill="#171717"/>
<circle cx="19.1972" cy="19.7901" r="8.30476" stroke="#171717" stroke-width="1.20359"/>
<path d="M49.008 15V4.57H50.912V15H49.008ZM52.9182 15V4.57H56.8102C57.5195 4.57 58.1448 4.70067 58.6862 4.962C59.2368 5.214 59.6662 5.58733 59.9742 6.082C60.2822 6.56733 60.4362 7.16 60.4362 7.86C60.4362 8.55067 60.2775 9.14333 59.9602 9.638C59.6522 10.1233 59.2275 10.4967 58.6862 10.758C58.1448 11.0193 57.5195 11.15 56.8102 11.15H54.8222V15H52.9182ZM54.8222 9.47H56.8382C57.1835 9.47 57.4822 9.40467 57.7342 9.274C57.9862 9.134 58.1822 8.94267 58.3222 8.7C58.4622 8.45733 58.5322 8.17733 58.5322 7.86C58.5322 7.53333 58.4622 7.25333 58.3222 7.02C58.1822 6.77733 57.9862 6.59067 57.7342 6.46C57.4822 6.32 57.1835 6.25 56.8382 6.25H54.8222V9.47ZM61.9963 15V4.57H66.3923C67.0829 4.57 67.6709 4.69133 68.1563 4.934C68.6509 5.16733 69.0289 5.50333 69.2903 5.942C69.5609 6.37133 69.6963 6.894 69.6963 7.51C69.6963 7.986 69.5656 8.434 69.3043 8.854C69.0523 9.26467 68.6463 9.60533 68.0863 9.876V8.994C68.5996 9.19 69.0056 9.43267 69.3043 9.722C69.6029 10.0113 69.8129 10.3333 69.9343 10.688C70.0556 11.0427 70.1163 11.416 70.1163 11.808C70.1163 12.8067 69.7849 13.5907 69.1223 14.16C68.4689 14.72 67.5589 15 66.3923 15H61.9963ZM63.9003 13.32H66.5883C67.0829 13.32 67.4749 13.1847 67.7643 12.914C68.0629 12.634 68.2123 12.2653 68.2123 11.808C68.2123 11.3507 68.0629 10.982 67.7643 10.702C67.4749 10.422 67.0829 10.282 66.5883 10.282H63.9003V13.32ZM63.9003 8.616H66.4903C66.8823 8.616 67.1949 8.504 67.4283 8.28C67.6616 8.04667 67.7783 7.748 67.7783 7.384C67.7783 7.02 67.6616 6.73067 67.4283 6.516C67.1949 6.30133 66.8823 6.194 66.4903 6.194H63.9003V8.616ZM74.1643 15V4.57H76.0683V13.32H80.5343V15H74.1643ZM84.3278 15.168C83.7398 15.168 83.2265 15.0373 82.7878 14.776C82.3585 14.5147 82.0271 14.1507 81.7938 13.684C81.5698 13.2173 81.4578 12.6713 81.4578 12.046V7.384H83.2918V11.892C83.2918 12.2093 83.3525 12.4893 83.4738 12.732C83.6045 12.9653 83.7865 13.152 84.0198 13.292C84.2625 13.4227 84.5331 13.488 84.8318 13.488C85.1305 13.488 85.3965 13.4227 85.6298 13.292C85.8631 13.152 86.0451 12.9607 86.1758 12.718C86.3065 12.4753 86.3718 12.186 86.3718 11.85V7.384H88.2058V15H86.4698V13.502L86.6238 13.768C86.4465 14.2347 86.1525 14.5847 85.7418 14.818C85.3405 15.0513 84.8691 15.168 84.3278 15.168ZM93.5786 15.168C92.8226 15.168 92.1413 14.9953 91.5346 14.65C90.9373 14.2953 90.466 13.8193 90.1206 13.222C89.7753 12.6153 89.6026 11.934 89.6026 11.178C89.6026 10.422 89.7753 9.74533 90.1206 9.148C90.466 8.55067 90.9373 8.07933 91.5346 7.734C92.1413 7.38867 92.8226 7.216 93.5786 7.216C94.12 7.216 94.624 7.314 95.0906 7.51C95.5573 7.69667 95.9586 7.958 96.2946 8.294C96.64 8.62067 96.8873 9.01267 97.0366 9.47L95.4266 10.17C95.2866 9.78733 95.0486 9.47933 94.7126 9.246C94.386 9.01267 94.008 8.896 93.5786 8.896C93.1773 8.896 92.818 8.994 92.5006 9.19C92.1926 9.386 91.95 9.65667 91.7726 10.002C91.5953 10.3473 91.5066 10.744 91.5066 11.192C91.5066 11.64 91.5953 12.0367 91.7726 12.382C91.95 12.7273 92.1926 12.998 92.5006 13.194C92.818 13.39 93.1773 13.488 93.5786 13.488C94.0173 13.488 94.4 13.3713 94.7266 13.138C95.0533 12.9047 95.2866 12.592 95.4266 12.2L97.0366 12.928C96.8873 13.3573 96.6446 13.7447 96.3086 14.09C95.9726 14.426 95.5713 14.692 95.1046 14.888C94.638 15.0747 94.1293 15.168 93.5786 15.168ZM98.4282 15V4.402H100.262V11.346L99.5622 11.136L103.146 7.384H105.428L102.614 10.45L105.484 15H103.384L100.892 11.052L101.984 10.828L99.6882 13.292L100.262 12.172V15H98.4282ZM107.432 18.08C107.227 18.08 107.026 18.0613 106.83 18.024C106.634 17.996 106.457 17.94 106.298 17.856V16.33C106.42 16.358 106.564 16.386 106.732 16.414C106.91 16.442 107.073 16.456 107.222 16.456C107.642 16.456 107.946 16.358 108.132 16.162C108.328 15.9753 108.501 15.7233 108.65 15.406L109.154 14.23L109.126 15.77L105.808 7.384H107.782L110.106 13.572H109.406L111.716 7.384H113.704L110.386 15.77C110.19 16.2553 109.952 16.6707 109.672 17.016C109.392 17.3613 109.066 17.6227 108.692 17.8C108.328 17.9867 107.908 18.08 107.432 18.08ZM121.078 15.168C120.415 15.168 119.799 15.0467 119.23 14.804C118.67 14.5613 118.184 14.2253 117.774 13.796C117.372 13.3573 117.078 12.8487 116.892 12.27L118.474 11.584C118.726 12.1813 119.09 12.6527 119.566 12.998C120.042 13.334 120.578 13.502 121.176 13.502C121.512 13.502 121.801 13.4507 122.044 13.348C122.296 13.236 122.487 13.0867 122.618 12.9C122.758 12.7133 122.828 12.4893 122.828 12.228C122.828 11.92 122.734 11.668 122.548 11.472C122.37 11.2667 122.1 11.108 121.736 10.996L119.734 10.352C118.922 10.1 118.31 9.722 117.9 9.218C117.489 8.714 117.284 8.12133 117.284 7.44C117.284 6.84267 117.428 6.31533 117.718 5.858C118.016 5.40067 118.427 5.046 118.95 4.794C119.482 4.53267 120.088 4.402 120.77 4.402C121.395 4.402 121.969 4.514 122.492 4.738C123.014 4.95267 123.462 5.256 123.836 5.648C124.218 6.03067 124.503 6.48333 124.69 7.006L123.122 7.706C122.916 7.18333 122.608 6.782 122.198 6.502C121.787 6.21267 121.311 6.068 120.77 6.068C120.452 6.068 120.172 6.124 119.93 6.236C119.687 6.33867 119.496 6.488 119.356 6.684C119.225 6.87067 119.16 7.09467 119.16 7.356C119.16 7.64533 119.253 7.902 119.44 8.126C119.626 8.34067 119.911 8.50867 120.294 8.63L122.212 9.232C123.042 9.50267 123.663 9.876 124.074 10.352C124.494 10.828 124.704 11.416 124.704 12.116C124.704 12.7133 124.55 13.2407 124.242 13.698C123.934 14.1553 123.509 14.5147 122.968 14.776C122.426 15.0373 121.796 15.168 121.078 15.168ZM126.264 17.8V7.384H127.986V8.896L127.818 8.518C128.079 8.10733 128.434 7.79 128.882 7.566C129.33 7.33267 129.848 7.216 130.436 7.216C131.155 7.216 131.803 7.39333 132.382 7.748C132.961 8.10267 133.418 8.57867 133.754 9.176C134.099 9.77333 134.272 10.4453 134.272 11.192C134.272 11.9293 134.104 12.6013 133.768 13.208C133.432 13.8147 132.975 14.2953 132.396 14.65C131.817 14.9953 131.159 15.168 130.422 15.168C129.871 15.168 129.363 15.0607 128.896 14.846C128.439 14.622 128.075 14.3047 127.804 13.894L128.098 13.53V17.8H126.264ZM130.212 13.488C130.632 13.488 131.005 13.39 131.332 13.194C131.659 12.998 131.911 12.7273 132.088 12.382C132.275 12.0367 132.368 11.64 132.368 11.192C132.368 10.744 132.275 10.352 132.088 10.016C131.911 9.67067 131.659 9.4 131.332 9.204C131.005 8.99867 130.632 8.896 130.212 8.896C129.811 8.896 129.447 8.994 129.12 9.19C128.803 9.386 128.551 9.66133 128.364 10.016C128.187 10.3613 128.098 10.7533 128.098 11.192C128.098 11.64 128.187 12.0367 128.364 12.382C128.551 12.7273 128.803 12.998 129.12 13.194C129.447 13.39 129.811 13.488 130.212 13.488ZM139.394 15.168C138.648 15.168 137.966 14.9953 137.35 14.65C136.744 14.3047 136.258 13.8333 135.894 13.236C135.54 12.6387 135.362 11.9573 135.362 11.192C135.362 10.4267 135.54 9.74533 135.894 9.148C136.258 8.55067 136.744 8.07933 137.35 7.734C137.957 7.38867 138.638 7.216 139.394 7.216C140.141 7.216 140.818 7.38867 141.424 7.734C142.031 8.07933 142.512 8.55067 142.866 9.148C143.23 9.736 143.412 10.4173 143.412 11.192C143.412 11.9573 143.23 12.6387 142.866 13.236C142.502 13.8333 142.017 14.3047 141.41 14.65C140.804 14.9953 140.132 15.168 139.394 15.168ZM139.394 13.488C139.805 13.488 140.164 13.39 140.472 13.194C140.79 12.998 141.037 12.7273 141.214 12.382C141.401 12.0273 141.494 11.6307 141.494 11.192C141.494 10.744 141.401 10.352 141.214 10.016C141.037 9.67067 140.79 9.4 140.472 9.204C140.164 8.99867 139.805 8.896 139.394 8.896C138.974 8.896 138.606 8.99867 138.288 9.204C137.971 9.4 137.719 9.67067 137.532 10.016C137.355 10.352 137.266 10.744 137.266 11.192C137.266 11.6307 137.355 12.0273 137.532 12.382C137.719 12.7273 137.971 12.998 138.288 13.194C138.606 13.39 138.974 13.488 139.394 13.488ZM144.803 15V7.384H146.525V9.078L146.385 8.826C146.563 8.25667 146.838 7.86 147.211 7.636C147.594 7.412 148.051 7.3 148.583 7.3H149.031V8.924H148.373C147.851 8.924 147.431 9.08733 147.113 9.414C146.796 9.73133 146.637 10.1793 146.637 10.758V15H144.803ZM153.717 15.084C152.858 15.084 152.191 14.8507 151.715 14.384C151.248 13.908 151.015 13.2407 151.015 12.382V9.022H149.699V7.384H149.839C150.212 7.384 150.501 7.286 150.707 7.09C150.912 6.894 151.015 6.60933 151.015 6.236V5.648H152.849V7.384H154.599V9.022H152.849V12.284C152.849 12.536 152.891 12.7507 152.975 12.928C153.068 13.1053 153.208 13.2407 153.395 13.334C153.591 13.4273 153.838 13.474 154.137 13.474C154.202 13.474 154.277 13.4693 154.361 13.46C154.454 13.4507 154.543 13.4413 154.627 13.432V15C154.496 15.0187 154.347 15.0373 154.179 15.056C154.011 15.0747 153.857 15.084 153.717 15.084ZM158.926 15.168C158.114 15.168 157.404 14.9767 156.798 14.594C156.2 14.202 155.79 13.6747 155.566 13.012L156.938 12.354C157.134 12.7833 157.404 13.1193 157.75 13.362C158.104 13.6047 158.496 13.726 158.926 13.726C159.262 13.726 159.528 13.6513 159.724 13.502C159.92 13.3527 160.018 13.1567 160.018 12.914C160.018 12.7647 159.976 12.6433 159.892 12.55C159.817 12.4473 159.71 12.3633 159.57 12.298C159.439 12.2233 159.294 12.1627 159.136 12.116L157.89 11.766C157.246 11.5793 156.756 11.2947 156.42 10.912C156.093 10.5293 155.93 10.0767 155.93 9.554C155.93 9.08733 156.046 8.68133 156.28 8.336C156.522 7.98133 156.854 7.706 157.274 7.51C157.703 7.314 158.193 7.216 158.744 7.216C159.462 7.216 160.097 7.38867 160.648 7.734C161.198 8.07933 161.59 8.56467 161.824 9.19L160.424 9.848C160.293 9.50267 160.074 9.22733 159.766 9.022C159.458 8.81667 159.112 8.714 158.73 8.714C158.422 8.714 158.179 8.784 158.002 8.924C157.824 9.064 157.736 9.246 157.736 9.47C157.736 9.61 157.773 9.73133 157.848 9.834C157.922 9.93667 158.025 10.0207 158.156 10.086C158.296 10.1513 158.454 10.212 158.632 10.268L159.85 10.632C160.475 10.8187 160.956 11.0987 161.292 11.472C161.637 11.8453 161.81 12.3027 161.81 12.844C161.81 13.3013 161.688 13.7073 161.446 14.062C161.203 14.4073 160.867 14.678 160.438 14.874C160.008 15.07 159.504 15.168 158.926 15.168ZM169.166 15.168C168.522 15.168 167.957 15.0513 167.472 14.818C166.986 14.5847 166.604 14.258 166.324 13.838C166.053 13.4087 165.918 12.9093 165.918 12.34C165.918 11.864 166.002 11.4533 166.17 11.108C166.347 10.7533 166.562 10.4547 166.814 10.212C167.066 9.96 167.313 9.75467 167.556 9.596C167.808 9.43733 168.018 9.31133 168.186 9.218L169.096 8.728C169.394 8.56933 169.665 8.41067 169.908 8.252C170.16 8.084 170.36 7.902 170.51 7.706C170.659 7.50067 170.734 7.26267 170.734 6.992C170.734 6.684 170.631 6.42733 170.426 6.222C170.23 6.00733 169.978 5.9 169.67 5.9C169.371 5.9 169.114 6.00733 168.9 6.222C168.694 6.42733 168.592 6.68867 168.592 7.006C168.592 7.23933 168.643 7.468 168.746 7.692C168.858 7.916 168.988 8.126 169.138 8.322C169.287 8.50867 169.432 8.67667 169.572 8.826L175.102 15H172.904L168.242 9.89C168.027 9.65667 167.812 9.40467 167.598 9.134C167.383 8.854 167.206 8.546 167.066 8.21C166.926 7.874 166.856 7.50067 166.856 7.09C166.856 6.54867 166.982 6.07733 167.234 5.676C167.495 5.26533 167.836 4.95267 168.256 4.738C168.685 4.514 169.152 4.402 169.656 4.402C170.169 4.402 170.631 4.514 171.042 4.738C171.462 4.962 171.793 5.27 172.036 5.662C172.288 6.054 172.414 6.502 172.414 7.006C172.414 7.51933 172.292 7.958 172.05 8.322C171.816 8.67667 171.532 8.98 171.196 9.232C170.869 9.47467 170.556 9.68 170.258 9.848L169.32 10.408C169.114 10.52 168.895 10.6647 168.662 10.842C168.438 11.01 168.246 11.2153 168.088 11.458C167.929 11.6913 167.85 11.976 167.85 12.312C167.85 12.7133 167.971 13.0307 168.214 13.264C168.466 13.488 168.806 13.6 169.236 13.6C169.497 13.6 169.73 13.558 169.936 13.474C170.141 13.3807 170.323 13.2687 170.482 13.138C170.64 12.998 170.776 12.8533 170.888 12.704C171 12.5453 171.102 12.4007 171.196 12.27L172.834 9.89H174.752L172.862 12.83C172.722 13.0633 172.549 13.3153 172.344 13.586C172.138 13.8567 171.891 14.1133 171.602 14.356C171.312 14.5893 170.967 14.7853 170.566 14.944C170.174 15.0933 169.707 15.168 169.166 15.168ZM178.597 15L182.195 4.57H184.659L188.257 15H186.185L185.443 12.76H181.411L180.655 15H178.597ZM181.957 11.08H184.897L183.161 5.886H183.693L181.957 11.08ZM189.264 15V7.384H190.986V9.078L190.846 8.826C191.023 8.25667 191.299 7.86 191.672 7.636C192.055 7.412 192.512 7.3 193.044 7.3H193.492V8.924H192.834C192.311 8.924 191.891 9.08733 191.574 9.414C191.257 9.73133 191.098 10.1793 191.098 10.758V15H189.264ZM198.178 15.084C197.319 15.084 196.652 14.8507 196.176 14.384C195.709 13.908 195.476 13.2407 195.476 12.382V9.022H194.16V7.384H194.3C194.673 7.384 194.962 7.286 195.168 7.09C195.373 6.894 195.476 6.60933 195.476 6.236V5.648H197.31V7.384H199.06V9.022H197.31V12.284C197.31 12.536 197.352 12.7507 197.436 12.928C197.529 13.1053 197.669 13.2407 197.856 13.334C198.052 13.4273 198.299 13.474 198.598 13.474C198.663 13.474 198.738 13.4693 198.822 13.46C198.915 13.4507 199.004 13.4413 199.088 13.432V15C198.957 15.0187 198.808 15.0373 198.64 15.056C198.472 15.0747 198.318 15.084 198.178 15.084ZM203.387 15.168C202.575 15.168 201.865 14.9767 201.259 14.594C200.661 14.202 200.251 13.6747 200.027 13.012L201.399 12.354C201.595 12.7833 201.865 13.1193 202.211 13.362C202.565 13.6047 202.957 13.726 203.387 13.726C203.723 13.726 203.989 13.6513 204.185 13.502C204.381 13.3527 204.479 13.1567 204.479 12.914C204.479 12.7647 204.437 12.6433 204.353 12.55C204.278 12.4473 204.171 12.3633 204.031 12.298C203.9 12.2233 203.755 12.1627 203.597 12.116L202.351 11.766C201.707 11.5793 201.217 11.2947 200.881 10.912C200.554 10.5293 200.391 10.0767 200.391 9.554C200.391 9.08733 200.507 8.68133 200.741 8.336C200.983 7.98133 201.315 7.706 201.735 7.51C202.164 7.314 202.654 7.216 203.205 7.216C203.923 7.216 204.558 7.38867 205.109 7.734C205.659 8.07933 206.051 8.56467 206.285 9.19L204.885 9.848C204.754 9.50267 204.535 9.22733 204.227 9.022C203.919 8.81667 203.573 8.714 203.191 8.714C202.883 8.714 202.64 8.784 202.463 8.924C202.285 9.064 202.197 9.246 202.197 9.47C202.197 9.61 202.234 9.73133 202.309 9.834C202.383 9.93667 202.486 10.0207 202.617 10.086C202.757 10.1513 202.915 10.212 203.093 10.268L204.311 10.632C204.936 10.8187 205.417 11.0987 205.753 11.472C206.098 11.8453 206.271 12.3027 206.271 12.844C206.271 13.3013 206.149 13.7073 205.907 14.062C205.664 14.4073 205.328 14.678 204.899 14.874C204.469 15.07 203.965 15.168 203.387 15.168ZM52.914 34.168C52.3073 34.168 51.752 34.0327 51.248 33.762C50.7533 33.4913 50.3707 33.1087 50.1 32.614L50.282 32.39V34H49.008V23.402H50.31V28.078L50.114 27.756C50.394 27.308 50.7767 26.9533 51.262 26.692C51.7473 26.4213 52.3027 26.286 52.928 26.286C53.6373 26.286 54.272 26.4587 54.832 26.804C55.4013 27.1493 55.8493 27.6207 56.176 28.218C56.5027 28.806 56.666 29.478 56.666 30.234C56.666 30.9713 56.5027 31.6387 56.176 32.236C55.8493 32.8333 55.4013 33.3047 54.832 33.65C54.272 33.9953 53.6327 34.168 52.914 34.168ZM52.816 32.908C53.292 32.908 53.7167 32.7913 54.09 32.558C54.4633 32.3247 54.7527 32.0073 54.958 31.606C55.1727 31.1953 55.28 30.738 55.28 30.234C55.28 29.7113 55.1727 29.254 54.958 28.862C54.7527 28.4607 54.4633 28.1433 54.09 27.91C53.7167 27.6673 53.292 27.546 52.816 27.546C52.34 27.546 51.9107 27.6627 51.528 27.896C51.1547 28.1293 50.856 28.4513 50.632 28.862C50.4173 29.2633 50.31 29.7207 50.31 30.234C50.31 30.738 50.4173 31.1953 50.632 31.606C50.856 32.0073 51.1547 32.3247 51.528 32.558C51.9107 32.7913 52.34 32.908 52.816 32.908ZM58.6425 37.08C58.4745 37.08 58.3065 37.066 58.1385 37.038C57.9705 37.01 57.8118 36.9633 57.6625 36.898V35.736C57.7652 35.7547 57.8912 35.7733 58.0405 35.792C58.1992 35.82 58.3532 35.834 58.5025 35.834C58.9412 35.834 59.2725 35.736 59.4965 35.54C59.7298 35.3533 59.9492 35.0267 60.1545 34.56L60.6305 33.426L60.6025 34.56L57.3825 26.454H58.7965L61.3025 32.894H60.8825L63.3745 26.454H64.8165L61.4145 34.896C61.2558 35.2973 61.0505 35.6613 60.7985 35.988C60.5558 36.324 60.2572 36.59 59.9025 36.786C59.5478 36.982 59.1278 37.08 58.6425 37.08ZM68.5487 34V23.57H69.9207V34H68.5487ZM74.1581 34L71.2321 23.57H72.6741L75.1241 32.754H74.7881L77.3361 23.57H78.7781L81.3121 32.754H80.9621L83.4261 23.57H84.8681L81.9421 34H80.4161L77.8681 24.858H78.2321L75.6841 34H74.1581ZM86.1854 34V23.57H89.6014C90.6561 23.57 91.5754 23.7847 92.3594 24.214C93.1434 24.6433 93.7501 25.25 94.1794 26.034C94.6088 26.8087 94.8234 27.7233 94.8234 28.778C94.8234 29.8233 94.6088 30.738 94.1794 31.522C93.7501 32.306 93.1434 32.9173 92.3594 33.356C91.5754 33.7853 90.6561 34 89.6014 34H86.1854ZM87.5574 32.74H89.6154C90.3901 32.74 91.0574 32.5767 91.6174 32.25C92.1868 31.9233 92.6254 31.466 92.9334 30.878C93.2414 30.2807 93.3954 29.5807 93.3954 28.778C93.3954 27.966 93.2368 27.266 92.9194 26.678C92.6114 26.09 92.1728 25.6373 91.6034 25.32C91.0434 24.9933 90.3808 24.83 89.6154 24.83H87.5574V32.74ZM101.364 34.168C100.627 34.168 99.9457 34.0373 99.3204 33.776C98.7044 33.5053 98.1631 33.1273 97.6964 32.642C97.2391 32.1567 96.8844 31.5873 96.6324 30.934C96.3804 30.2807 96.2544 29.5667 96.2544 28.792C96.2544 28.008 96.3804 27.2893 96.6324 26.636C96.8844 25.9827 97.2391 25.4133 97.6964 24.928C98.1537 24.4427 98.6951 24.0693 99.3204 23.808C99.9457 23.5373 100.627 23.402 101.364 23.402C102.083 23.402 102.727 23.528 103.296 23.78C103.875 24.032 104.36 24.3587 104.752 24.76C105.154 25.1613 105.438 25.5907 105.606 26.048L104.346 26.622C104.104 26.0433 103.726 25.5767 103.212 25.222C102.699 24.858 102.083 24.676 101.364 24.676C100.636 24.676 99.9877 24.8487 99.4184 25.194C98.8584 25.5393 98.4197 26.02 98.1024 26.636C97.7851 27.252 97.6264 27.9707 97.6264 28.792C97.6264 29.604 97.7851 30.318 98.1024 30.934C98.4197 31.55 98.8584 32.0307 99.4184 32.376C99.9877 32.7213 100.636 32.894 101.364 32.894C102.083 32.894 102.699 32.7167 103.212 32.362C103.726 31.998 104.104 31.5267 104.346 30.948L105.606 31.522C105.438 31.9793 105.154 32.4087 104.752 32.81C104.36 33.2113 103.875 33.538 103.296 33.79C102.727 34.042 102.083 34.168 101.364 34.168ZM108.884 34L111.53 30.22L108.898 26.454H110.466L112.72 29.73H111.922L114.148 26.454H115.73L113.098 30.22L115.716 34H114.148L111.922 30.724H112.706L110.48 34H108.884ZM119.463 34V23.57H122.879C123.933 23.57 124.853 23.7847 125.637 24.214C126.421 24.6433 127.027 25.25 127.457 26.034C127.886 26.8087 128.101 27.7233 128.101 28.778C128.101 29.8233 127.886 30.738 127.457 31.522C127.027 32.306 126.421 32.9173 125.637 33.356C124.853 33.7853 123.933 34 122.879 34H119.463ZM120.835 32.74H122.893C123.667 32.74 124.335 32.5767 124.895 32.25C125.464 31.9233 125.903 31.466 126.211 30.878C126.519 30.2807 126.673 29.5807 126.673 28.778C126.673 27.966 126.514 27.266 126.197 26.678C125.889 26.09 125.45 25.6373 124.881 25.32C124.321 24.9933 123.658 24.83 122.893 24.83H120.835V32.74ZM129.686 34V26.454H130.988V34H129.686ZM129.686 25.25V23.57H130.988V25.25H129.686ZM136.074 34.084C135.337 34.084 134.767 33.874 134.366 33.454C133.974 33.034 133.778 32.4413 133.778 31.676V27.7H132.406V26.454H132.686C133.022 26.454 133.288 26.3513 133.484 26.146C133.68 25.9407 133.778 25.67 133.778 25.334V24.718H135.08V26.454H136.774V27.7H135.08V31.634C135.08 31.886 135.117 32.1053 135.192 32.292C135.276 32.4787 135.411 32.628 135.598 32.74C135.785 32.8427 136.032 32.894 136.34 32.894C136.405 32.894 136.485 32.8893 136.578 32.88C136.681 32.8707 136.774 32.8613 136.858 32.852V34C136.737 34.028 136.601 34.0467 136.452 34.056C136.303 34.0747 136.177 34.084 136.074 34.084ZM138.559 34V26.454H139.833V27.994L139.651 27.756C139.837 27.28 140.136 26.916 140.547 26.664C140.957 26.412 141.419 26.286 141.933 26.286C142.521 26.286 143.048 26.4493 143.515 26.776C143.991 27.1027 144.317 27.532 144.495 28.064L144.131 28.078C144.327 27.49 144.658 27.0467 145.125 26.748C145.591 26.44 146.109 26.286 146.679 26.286C147.201 26.286 147.673 26.4073 148.093 26.65C148.522 26.8927 148.863 27.2287 149.115 27.658C149.367 28.0873 149.493 28.5727 149.493 29.114V34H148.177V29.534C148.177 29.114 148.102 28.7593 147.953 28.47C147.803 28.1807 147.598 27.9567 147.337 27.798C147.085 27.63 146.786 27.546 146.441 27.546C146.105 27.546 145.801 27.63 145.531 27.798C145.269 27.9567 145.059 28.1853 144.901 28.484C144.751 28.7733 144.677 29.1233 144.677 29.534V34H143.361V29.534C143.361 29.114 143.286 28.7593 143.137 28.47C142.987 28.1807 142.782 27.9567 142.521 27.798C142.269 27.63 141.97 27.546 141.625 27.546C141.289 27.546 140.985 27.63 140.715 27.798C140.453 27.9567 140.243 28.1853 140.085 28.484C139.935 28.7733 139.861 29.1233 139.861 29.534V34H138.559ZM153.554 34.168C153.059 34.168 152.621 34.0793 152.238 33.902C151.865 33.7153 151.571 33.4633 151.356 33.146C151.141 32.8193 151.034 32.446 151.034 32.026C151.034 31.6247 151.118 31.2653 151.286 30.948C151.463 30.6213 151.734 30.346 152.098 30.122C152.471 29.898 152.938 29.7393 153.498 29.646L156.298 29.184V30.276L153.792 30.696C153.307 30.78 152.952 30.934 152.728 31.158C152.513 31.382 152.406 31.6573 152.406 31.984C152.406 32.292 152.527 32.5487 152.77 32.754C153.022 32.9593 153.335 33.062 153.708 33.062C154.184 33.062 154.595 32.964 154.94 32.768C155.295 32.5627 155.57 32.2873 155.766 31.942C155.971 31.5967 156.074 31.214 156.074 30.794V28.876C156.074 28.4653 155.92 28.134 155.612 27.882C155.313 27.6207 154.917 27.49 154.422 27.49C153.993 27.49 153.61 27.602 153.274 27.826C152.947 28.0407 152.705 28.33 152.546 28.694L151.412 28.106C151.552 27.7607 151.776 27.4527 152.084 27.182C152.392 26.902 152.751 26.6827 153.162 26.524C153.573 26.3653 154.002 26.286 154.45 26.286C155.029 26.286 155.537 26.398 155.976 26.622C156.415 26.8367 156.755 27.14 156.998 27.532C157.25 27.9147 157.376 28.3627 157.376 28.876V34H156.102V32.572L156.34 32.656C156.181 32.9547 155.967 33.216 155.696 33.44C155.425 33.664 155.108 33.8413 154.744 33.972C154.38 34.1027 153.983 34.168 153.554 34.168ZM161.131 34L158.541 26.454H159.983L162.041 32.768L161.537 32.754L163.553 26.454H164.785L166.801 32.754L166.297 32.768L168.369 26.454H169.797L167.207 34H165.961L163.973 27.7H164.365L162.377 34H161.131ZM172.9 34.168C172.405 34.168 171.966 34.0793 171.584 33.902C171.21 33.7153 170.916 33.4633 170.702 33.146C170.487 32.8193 170.38 32.446 170.38 32.026C170.38 31.6247 170.464 31.2653 170.632 30.948C170.809 30.6213 171.08 30.346 171.444 30.122C171.817 29.898 172.284 29.7393 172.844 29.646L175.644 29.184V30.276L173.138 30.696C172.652 30.78 172.298 30.934 172.074 31.158C171.859 31.382 171.752 31.6573 171.752 31.984C171.752 32.292 171.873 32.5487 172.116 32.754C172.368 32.9593 172.68 33.062 173.054 33.062C173.53 33.062 173.94 32.964 174.286 32.768C174.64 32.5627 174.916 32.2873 175.112 31.942C175.317 31.5967 175.42 31.214 175.42 30.794V28.876C175.42 28.4653 175.266 28.134 174.958 27.882C174.659 27.6207 174.262 27.49 173.768 27.49C173.338 27.49 172.956 27.602 172.62 27.826C172.293 28.0407 172.05 28.33 171.892 28.694L170.758 28.106C170.898 27.7607 171.122 27.4527 171.43 27.182C171.738 26.902 172.097 26.6827 172.508 26.524C172.918 26.3653 173.348 26.286 173.796 26.286C174.374 26.286 174.883 26.398 175.322 26.622C175.76 26.8367 176.101 27.14 176.344 27.532C176.596 27.9147 176.722 28.3627 176.722 28.876V34H175.448V32.572L175.686 32.656C175.527 32.9547 175.312 33.216 175.042 33.44C174.771 33.664 174.454 33.8413 174.09 33.972C173.726 34.1027 173.329 34.168 172.9 34.168Z" fill="black"/>
</svg>
