<svg width="320" height="278" viewBox="0 0 320 278" fill="none" xmlns="http://www.w3.org/2000/svg">
<path d="M122.5 0H80L0 138.5L80 277.5H123L42.5 138.5L122.5 0Z" fill="white"/>
<path d="M240 0H153.5L132 37H218.5L277.5 138.5L218.5 240.5H132L153.5 277.5H240L320 138.5L240 0Z" fill="white"/>
<rect x="154.5" y="67.5" width="11" height="138" fill="white"/>
<rect x="229" y="132.5" width="11" height="138" transform="rotate(90 229 132.5)" fill="white"/>
<path d="M109.808 92.3588C112.156 90.487 114.502 88.617 116.846 86.7489C138.972 114.507 179.514 108.409 204.143 88.7761C206.635 91.902 208.817 94.6389 211 97.3777C186.761 116.699 136.921 126.372 109.808 92.3588Z" fill="white"/>
<path d="M109.808 184.048C112.156 185.919 114.502 187.789 116.846 189.658C138.972 161.9 179.514 167.998 204.143 187.63C206.635 184.504 208.817 181.768 211 179.029C186.761 159.708 136.921 150.034 109.808 184.048Z" fill="white"/>
<path d="M149.89 210.538C151.762 208.189 153.632 205.844 155.5 203.5C125 168 114 122.5 155 74.5C151.874 72.0082 149.137 69.8266 146.398 67.6434C108 114.5 106.5 170.5 149.89 210.538Z" fill="white"/>
<path d="M170.11 210.538C168.238 208.189 166.368 205.844 164.5 203.5C195 168 206 122.5 165 74.5C168.126 72.0082 170.863 69.8266 173.602 67.6434C212 114.5 213.5 170.5 170.11 210.538Z" fill="white"/>
<circle cx="159.5" cy="139.5" r="69" stroke="white" stroke-width="10"/>
</svg>
