<svg viewBox="0 0 14 14" fill="none" xmlns="http://www.w3.org/2000/svg">
<path d="M11.2891 1.46094L6.77344 5.97656M11.2891 1.46094V4.00098M11.2891 1.46094H8.74902M10.7246 6.25879V8.68594C10.7246 9.31818 10.7246 9.63433 10.6016 9.87581C10.4934 10.0882 10.3206 10.2609 10.1082 10.3691C9.86675 10.4922 9.5506 10.4922 8.91836 10.4922H4.06406C3.43182 10.4922 3.11569 10.4922 2.87421 10.3691C2.66179 10.2609 2.48909 10.0882 2.38086 9.87581C2.25781 9.63433 2.25781 9.31818 2.25781 8.68594V3.83164C2.25781 3.1994 2.25781 2.88327 2.38086 2.64178C2.48909 2.42936 2.66179 2.25666 2.87421 2.14844C3.11569 2.02539 3.43181 2.02539 4.06406 2.02539H6.49121" stroke="currentColor" stroke-width="1.6" stroke-linecap="round" stroke-linejoin="round"/>
</svg>